<svg xmlns="http://www.w3.org/2000/svg" width="24" height="24" viewBox="0 0 24 24" fill="none" stroke="currentColor" stroke-width="2" stroke-linecap="round" stroke-linejoin="round">
  <path d="M16 4h2a2 2 0 0 1 2 2v14a2 2 0 0 1-2 2H6a2 2 0 0 1-2-2V6a2 2 0 0 1 2-2h2" fill="currentColor" fill-opacity="0.15" stroke="none"/>
  <path d="M16 4h2a2 2 0 0 1 2 2v14a2 2 0 0 1-2 2H6a2 2 0 0 1-2-2V6a2 2 0 0 1 2-2h2"/>
  <rect x="8" y="2" width="8" height="4" rx="1"/>
  <line x1="8" y1="11" x2="8.01" y2="11"/>
  <line x1="12" y1="11" x2="16" y2="11"/>
  <line x1="8" y1="15" x2="8.01" y2="15"/>
  <line x1="12" y1="15" x2="16" y2="15"/>
</svg>
