<svg xmlns="http://www.w3.org/2000/svg" width="24" height="24" viewBox="0 0 24 24" fill="none" stroke="currentColor" stroke-width="2" stroke-linecap="round" stroke-linejoin="round">
  <path d="M14 2H6a2 2 0 0 0-2 2v16a2 2 0 0 0 2 2h12a2 2 0 0 0 2-2V8z" fill="currentColor" fill-opacity="0.15" stroke="none"/>
  <path d="M14 2H6a2 2 0 0 0-2 2v16a2 2 0 0 0 2 2h12a2 2 0 0 0 2-2V8z"/>
  <polyline points="14 2 14 8 20 8"/>
  <circle cx="10" cy="13" r="2"/>
  <path d="M20 17l-3.5-3.5a2 2 0 0 0-3 0L8 19"/>
</svg>
