<svg xmlns="http://www.w3.org/2000/svg" width="24" height="24" viewBox="0 0 24 24" fill="none" stroke="currentColor" stroke-width="2" stroke-linecap="round" stroke-linejoin="round">
  <path d="M14 2H6a2 2 0 0 0-2 2v16a2 2 0 0 0 2 2h12a2 2 0 0 0 2-2V8z" fill="currentColor" fill-opacity="0.15" stroke="none"/>
  <path d="M14 2H6a2 2 0 0 0-2 2v16a2 2 0 0 0 2 2h12a2 2 0 0 0 2-2V8z"/>
  <polyline points="14 2 14 8 20 8"/>
  <rect x="9" y="14" width="6" height="4" rx="1"/>
  <path d="M10 14v-1a2 2 0 1 1 4 0v1"/>
</svg>
