<svg xmlns="http://www.w3.org/2000/svg" width="24" height="24" viewBox="0 0 24 24" fill="none" stroke="currentColor" stroke-width="2" stroke-linecap="round" stroke-linejoin="round">
  <circle cx="12" cy="12" r="3" fill="currentColor" fill-opacity="0.15" stroke="none"/>
  <circle cx="12" cy="12" r="3"/>
  <path d="M12 2a4 4 0 0 1 0 8M12 22a4 4 0 0 1 0-8M2 12a4 4 0 0 1 8 0M22 12a4 4 0 0 1-8 0"/>
  <path d="M5.64 5.64a4 4 0 0 1 5.66 5.66M18.36 5.64a4 4 0 0 0-5.66 5.66M18.36 18.36a4 4 0 0 1-5.66-5.66M5.64 18.36a4 4 0 0 0 5.66-5.66"/>
</svg>
