<svg xmlns="http://www.w3.org/2000/svg" width="24" height="24" viewBox="0 0 24 24" fill="none" stroke="currentColor" stroke-width="2" stroke-linecap="round" stroke-linejoin="round">
  <path d="M21.2 8.4c.5.38.8.97.8 1.6v10a2 2 0 0 1-2 2H4a2 2 0 0 1-2-2V10c0-.63.3-1.22.8-1.6l8-6a2 2 0 0 1 2.4 0z" fill="currentColor" fill-opacity="0.15" stroke="none"/>
  <path d="M22 10l-10 6L2 10"/>
  <path d="M21.2 8.4c.5.38.8.97.8 1.6v10a2 2 0 0 1-2 2H4a2 2 0 0 1-2-2V10c0-.63.3-1.22.8-1.6l8-6a2 2 0 0 1 2.4 0z"/>
</svg>
