<svg xmlns="http://www.w3.org/2000/svg" viewBox="0 0 24 24" fill="none" stroke="currentColor" stroke-width="2" stroke-linecap="round" stroke-linejoin="round">
  <path d="M10.5 1.5a5 5 0 0 1 7.07 0l4.93 4.93a5 5 0 0 1 0 7.07l-8.49 8.49a5 5 0 0 1-7.07 0l-4.93-4.93a5 5 0 0 1 0-7.07l8.49-8.49Z" fill="currentColor" fill-opacity="0.15" stroke="none"/>
  <path d="M10.5 1.5a5 5 0 0 1 7.07 0l4.93 4.93a5 5 0 0 1 0 7.07l-8.49 8.49a5 5 0 0 1-7.07 0l-4.93-4.93a5 5 0 0 1 0-7.07l8.49-8.49z"/>
  <line x1="6" y1="18" x2="18" y2="6"/>
</svg>