<svg xmlns="http://www.w3.org/2000/svg" viewBox="0 0 24 24" fill="none" stroke="currentColor" stroke-width="2" stroke-linecap="round" stroke-linejoin="round">
  <path d="M19.439 7.854c-.02-.12-.036-.24-.036-.354a4.5 4.5 0 0 0-9 0c0 .114-.016.234-.036.354M2 16.5h4.5a.5.5 0 0 1 .5.5v4.5" fill="currentColor" fill-opacity="0.15" stroke="none"/>
  <path d="M19.439 7.854c-.02-.12-.036-.24-.036-.354a4.5 4.5 0 0 0-9 0c0 .114-.016.234-.036.354"/>
  <path d="M3 21V10h7a1 1 0 0 0 1-1V3h7v7a1 1 0 0 0 1 1h2v10H3z"/>
</svg>