<svg xmlns="http://www.w3.org/2000/svg" viewBox="0 0 24 24" fill="none" stroke="currentColor" stroke-width="2" stroke-linecap="round" stroke-linejoin="round">
  <path d="M4.5 16.5c-1.5 1.26-2 5-2 5s3.74-.5 5-2c.71-.84.7-2.13-.09-2.91a2.18 2.18 0 0 0-2.91-.09ZM12 15l-3-3 6.36-6.36a7.49 7.49 0 0 1 5.7-2.13c.13 1.94-.59 4.03-2.13 5.7L12 15Z" fill="currentColor" fill-opacity="0.15" stroke="none"/>
  <path d="M4.5 16.5c-1.5 1.26-2 5-2 5s3.74-.5 5-2c.71-.84.7-2.13-.09-2.91a2.18 2.18 0 0 0-2.91-.09z"/>
  <path d="M12 15l-3-3 6.36-6.36a7.49 7.49 0 0 1 5.7-2.13 7.49 7.49 0 0 1-2.13 5.7L12 15z"/>
  <path d="M9 12H4s.55-3.03 2-4c1.62-1.08 5 0 5 0"/>
  <path d="M12 15v5s3.03-.55 4-2c1.08-1.62 0-5 0-5"/>
</svg>