<svg xmlns="http://www.w3.org/2000/svg" width="24" height="24" viewBox="0 0 24 24" fill="none" stroke="currentColor" stroke-width="2" stroke-linecap="round" stroke-linejoin="round">
  <path d="M3 9l1-4h16l1 4H3z" fill="currentColor" fill-opacity="0.15" stroke="none"/>
  <path d="M3 9l1-4h16l1 4"/>
  <path d="M3 9h18v12H3z"/>
  <path d="M10 9v12"/>
  <path d="M3 9c0 1.66 1.34 3 3 3s3-1.34 3-3"/>
  <path d="M9 9c0 1.66 1.34 3 3 3s3-1.34 3-3"/>
  <path d="M15 9c0 1.66 1.34 3 3 3s3-1.34 3-3"/>
</svg>
